<?xml version="1.0" encoding="utf-8"?>
<!-- Generator: Adobe Illustrator 23.0.5, SVG Export Plug-In . SVG Version: 6.00 Build 0)  -->
<svg version="1.1" id="Layer_1" xmlns="http://www.w3.org/2000/svg" xmlns:xlink="http://www.w3.org/1999/xlink" x="0px" y="0px"
	 viewBox="0 0 612 792" style="enable-background:new 0 0 612 792;" xml:space="preserve">
<style type="text/css">
	.st0{fill:#FFFFFF;}
	.st1{fill:#B0ADA7;}
	.st2{fill:none;stroke:#FFFFFF;stroke-miterlimit:10;}
	.st3{fill:none;stroke:#000000;stroke-width:6;}
	.st4{fill:none;stroke:#FFFFFF;stroke-width:2;}
	.st5{fill:url(#SVGID_1_);}
	.st6{fill:none;stroke:#000000;stroke-miterlimit:10;}
	.st7{fill:none;stroke:#000000;stroke-width:4;}
	.st8{fill:#ABADB0;}
	.st9{fill:none;stroke:#827C77;stroke-width:2;}
	.st10{fill:none;stroke:#000000;}
	.st11{fill:none;stroke:#FFFFFF;}
	.st12{fill:none;}
	.st13{font-family:'BAPe'erot';}
	.st14{font-size:4px;}
</style>
<rect x="135.98" y="271.44" class="st0" width="340.04" height="249.12"/>
<rect x="143.58" y="290.35" class="st1" width="324.84" height="51.12"/>
<line class="st2" x1="143.58" y1="339.21" x2="468.42" y2="339.21"/>
<line class="st2" x1="143.58" y1="292.55" x2="468.42" y2="292.55"/>
<g>
	
	
	
	
	
	
	
	
	
	
	
	
	
	
	
	
	
	
</g>
<g>
	<g>
		<path class="st3" d="M361,344.77h-85.48c-2.84,0-5.14-2.3-5.14-5.14v-47.44c0-2.84,2.3-5.14,5.14-5.14H361
			c2.84,0,5.14,2.3,5.14,5.14v47.44C366.15,342.47,363.84,344.77,361,344.77z"/>
		<path class="st4" d="M361,344.77h-85.48c-2.84,0-5.14-2.3-5.14-5.14v-47.44c0-2.84,2.3-5.14,5.14-5.14H361
			c2.84,0,5.14,2.3,5.14,5.14v47.44C366.15,342.47,363.84,344.77,361,344.77z"/>
		<path d="M361,344.77h-85.48c-2.84,0-5.14-2.3-5.14-5.14v-47.44c0-2.84,2.3-5.14,5.14-5.14H361c2.84,0,5.14,2.3,5.14,5.14v47.44
			C366.15,342.47,363.84,344.77,361,344.77z"/>
	</g>
	<g>
		<path class="st1" d="M350.43,293.22H286.1c-3.18,0-5.76-2.58-5.76-5.76v-0.81c0-3.18,2.58-5.76,5.76-5.76h64.33
			c3.18,0,5.76,2.58,5.76,5.76v0.81C356.19,290.64,353.61,293.22,350.43,293.22z"/>
		<g>
			<circle cx="285.87" cy="287.05" r="1.5"/>
			<circle cx="350.66" cy="287.05" r="1.5"/>
		</g>
	</g>
	<g>
		
		
		
		
		
		
		
		
		
		
	</g>
</g>
<g>
	<g>
		<path class="st3" d="M247.98,344.77h-86.2c-2.64,0-4.78-2.14-4.78-4.78v-48.16c0-2.64,2.14-4.78,4.78-4.78h86.2
			c2.64,0,4.78,2.14,4.78,4.78v48.16C252.76,342.63,250.62,344.77,247.98,344.77z"/>
		<path class="st4" d="M247.98,344.77h-86.2c-2.64,0-4.78-2.14-4.78-4.78v-48.16c0-2.64,2.14-4.78,4.78-4.78h86.2
			c2.64,0,4.78,2.14,4.78,4.78v48.16C252.76,342.63,250.62,344.77,247.98,344.77z"/>
		<path d="M247.98,344.77h-86.2c-2.64,0-4.78-2.14-4.78-4.78v-48.16c0-2.64,2.14-4.78,4.78-4.78h86.2c2.64,0,4.78,2.14,4.78,4.78
			v48.16C252.76,342.63,250.62,344.77,247.98,344.77z"/>
	</g>
	<g>
		<path class="st1" d="M237.05,293.22h-64.33c-3.18,0-5.76-2.58-5.76-5.76v-0.81c0-3.18,2.58-5.76,5.76-5.76h64.33
			c3.18,0,5.76,2.58,5.76,5.76v0.81C242.81,290.64,240.23,293.22,237.05,293.22z"/>
		<g>
			<circle cx="172.49" cy="287.05" r="1.5"/>
			<circle cx="237.27" cy="287.05" r="1.5"/>
		</g>
	</g>
	<g>
		
		
		
		
		
		
		
		
		
	</g>
</g>
<g>
	
	
	
	
</g>
<g>
	
	
	
	
</g>
<linearGradient id="SVGID_1_" gradientUnits="userSpaceOnUse" x1="306" y1="371.813" x2="306" y2="360.293">
	<stop  offset="0" style="stop-color:#B0ADA7"/>
	<stop  offset="0.0606" style="stop-color:#C1BFBA"/>
	<stop  offset="0.1759" style="stop-color:#DCDBD8"/>
	<stop  offset="0.2893" style="stop-color:#EFEFEE"/>
	<stop  offset="0.3988" style="stop-color:#FBFBFB"/>
	<stop  offset="0.5" style="stop-color:#FFFFFF"/>
	<stop  offset="0.6044" style="stop-color:#FBFBFB"/>
	<stop  offset="0.7122" style="stop-color:#F0F0EE"/>
	<stop  offset="0.8213" style="stop-color:#DEDCDA"/>
	<stop  offset="0.9309" style="stop-color:#C4C2BD"/>
	<stop  offset="1" style="stop-color:#B0ADA7"/>
</linearGradient>
<rect x="143.58" y="360.29" class="st5" width="324.84" height="11.52"/>
<rect x="143.58" y="278.22" class="st6" width="324.84" height="235.57"/>
<g>
	<g>
		
		
		
		
		
		
		
		
		
		
		
		
		
		
		
		
		
		
		
		
		
		
		
		
		
		
		
		
		
		
		
	</g>
</g>
<g>
	<path class="st7" d="M247.72,376.97h-85.68c-2.78,0-5.04-2.26-5.04-5.04v-11.76c0-2.78,2.26-5.04,5.04-5.04h85.68
		c2.78,0,5.04,2.26,5.04,5.04v11.76C252.76,374.72,250.5,376.97,247.72,376.97z"/>
	<path class="st1" d="M247.72,376.97h-85.68c-2.78,0-5.04-2.26-5.04-5.04v-11.76c0-2.78,2.26-5.04,5.04-5.04h85.68
		c2.78,0,5.04,2.26,5.04,5.04v11.76C252.76,374.72,250.5,376.97,247.72,376.97z"/>
</g>
<g>
	<path class="st4" d="M196.26,375.07h-32.17c-2.22,0-4.02-1.8-4.02-4.02v-9.72c0-2.22,1.8-4.02,4.02-4.02h32.17
		c2.22,0,4.02,1.8,4.02,4.02v9.72C200.28,373.27,198.48,375.07,196.26,375.07z"/>
	<path d="M196.26,375.07h-32.17c-2.22,0-4.02-1.8-4.02-4.02v-9.72c0-2.22,1.8-4.02,4.02-4.02h32.17c2.22,0,4.02,1.8,4.02,4.02v9.72
		C200.28,373.27,198.48,375.07,196.26,375.07z"/>
</g>
<g>
	<g>
		
		
		
		
		
		
		
		
		
		
		
		
		
		
		
	</g>
</g>
<g>
	<g>
		
		
		
		
	</g>
</g>
<g>
	<path class="st7" d="M361.11,376.97h-85.68c-2.78,0-5.04-2.26-5.04-5.04v-11.76c0-2.78,2.26-5.04,5.04-5.04h85.68
		c2.78,0,5.04,2.26,5.04,5.04v11.76C366.15,374.72,363.89,376.97,361.11,376.97z"/>
	<path class="st1" d="M361.11,376.97h-85.68c-2.78,0-5.04-2.26-5.04-5.04v-11.76c0-2.78,2.26-5.04,5.04-5.04h85.68
		c2.78,0,5.04,2.26,5.04,5.04v11.76C366.15,374.72,363.89,376.97,361.11,376.97z"/>
</g>

<g>
	<path class="st4" d="M309.65,375.07h-32.17c-2.22,0-4.02-1.8-4.02-4.02v-9.72c0-2.22,1.8-4.02,4.02-4.02h32.17
		c2.22,0,4.02,1.8,4.02,4.02v9.72C313.66,373.27,311.86,375.07,309.65,375.07z"/>
	<path d="M309.65,375.07h-32.17c-2.22,0-4.02-1.8-4.02-4.02v-9.72c0-2.22,1.8-4.02,4.02-4.02h32.17c2.22,0,4.02,1.8,4.02,4.02v9.72
		C313.66,373.27,311.86,375.07,309.65,375.07z"/>
</g>
<g>
	<g>
		
		
		
		
		
		
		
		
		
		
		
		
		
		
		
		
	</g>
</g>
<g>
	<g>
		
		
		
		
	</g>
</g>
<g>
	<g>
		<rect x="149.32" y="382.79" class="st7" width="286.56" height="112.41"/>
		<rect x="149.32" y="382.79" class="st8" width="286.56" height="112.41"/>
	</g>
	<g>
		
		<path d="M437.83,406.85h17.21c1.37,0,2.49,1.11,2.49,2.49v4.19c0,1.37-1.11,2.49-2.49,2.49h-17.21"/>
	</g>
	<g>
		
		<path d="M437.83,419.9h17.21c1.37,0,2.49,1.11,2.49,2.49v4.19c0,1.37-1.11,2.49-2.49,2.49h-17.21"/>
	</g>
	<g>
		
		<path d="M437.83,432.71h17.21c1.37,0,2.49,1.11,2.49,2.49v4.19c0,1.37-1.11,2.49-2.49,2.49h-17.21"/>
	</g>
	<g>
		
		<path d="M437.83,445.59h17.21c1.37,0,2.49,1.11,2.49,2.49v4.19c0,1.37-1.11,2.49-2.49,2.49h-17.21"/>
	</g>
	<g>
		
		<path d="M437.83,458.32h17.21c1.37,0,2.49,1.11,2.49,2.49V465c0,1.37-1.11,2.49-2.49,2.49h-17.21"/>
	</g>
	<g>
		
		<path d="M437.83,471.2h17.21c1.37,0,2.49,1.11,2.49,2.49v4.19c0,1.37-1.11,2.49-2.49,2.49h-17.21"/>
	</g>
	<g>
		
		<path d="M437.83,483.93h17.21c1.37,0,2.49,1.11,2.49,2.49v4.19c0,1.37-1.11,2.49-2.49,2.49h-17.21"/>
	</g>
	<rect x="149.08" y="382.79" width="287.1" height="22.2"/>
	<rect x="149.32" y="404.99" class="st0" width="286.56" height="12.89"/>
	<rect x="149.32" y="430.76" class="st0" width="286.56" height="12.89"/>
	<rect x="149.32" y="456.54" class="st0" width="286.56" height="12.89"/>
	<rect x="149.32" y="482.31" class="st0" width="286.56" height="12.89"/>
	<g>
		<line class="st10" x1="390.65" y1="404.99" x2="390.65" y2="495.2"/>
		<line class="st10" x1="408.43" y1="404.99" x2="408.43" y2="495.2"/>
		<line class="st10" x1="370.56" y1="404.99" x2="370.56" y2="495.2"/>
		<line class="st10" x1="350.88" y1="404.99" x2="350.88" y2="495.2"/>
		<line class="st10" x1="330.72" y1="404.99" x2="330.72" y2="495.2"/>
		<line class="st10" x1="310.08" y1="404.99" x2="310.08" y2="495.2"/>
		<line class="st10" x1="289.68" y1="404.99" x2="289.68" y2="495.2"/>
		<line class="st10" x1="270.24" y1="404.99" x2="270.24" y2="495.2"/>
		<line class="st10" x1="250.08" y1="404.99" x2="250.08" y2="495.2"/>
		<line class="st10" x1="229.68" y1="404.99" x2="229.68" y2="495.2"/>
		<line class="st10" x1="209.52" y1="404.99" x2="209.52" y2="495.2"/>
		<line class="st10" x1="189.84" y1="404.99" x2="189.84" y2="495.2"/>
		<line class="st10" x1="169.68" y1="404.99" x2="169.68" y2="495.2"/>
	</g>
	<g>
		<line class="st11" x1="390.65" y1="382.79" x2="390.65" y2="404.99"/>
		<line class="st11" x1="408.43" y1="382.79" x2="408.43" y2="404.99"/>
		<line class="st11" x1="370.56" y1="382.79" x2="370.56" y2="404.99"/>
		<line class="st11" x1="350.88" y1="382.79" x2="350.88" y2="404.99"/>
		<line class="st11" x1="330.72" y1="382.79" x2="330.72" y2="404.99"/>
		<line class="st11" x1="310.08" y1="382.79" x2="310.08" y2="404.99"/>
		<line class="st11" x1="289.68" y1="382.79" x2="289.68" y2="404.99"/>
		<line class="st11" x1="270.24" y1="382.79" x2="270.24" y2="404.99"/>
		<line class="st11" x1="250.08" y1="382.79" x2="250.08" y2="404.99"/>
		<line class="st11" x1="229.68" y1="382.79" x2="229.68" y2="404.99"/>
		<line class="st11" x1="209.52" y1="382.79" x2="209.52" y2="404.99"/>
		<line class="st11" x1="189.84" y1="382.79" x2="189.84" y2="404.99"/>
		<line class="st11" x1="169.68" y1="382.79" x2="169.68" y2="404.99"/>
	</g>
	<g>
		
		
		
		
		
	</g>
	<g>
		
		
		
		
		
	</g>
	<g>
		
		
		
		
		
	</g>
	<g>
		
		
		
		
		
	</g>
	<g>
		
		
		
		
		
	</g>
	<g>
		
		
		
		
	</g>
	<g>
		
		
		
		
	</g>
	<g>
		
		
		
		
		
		
		
		
	</g>
	<g>
		
		
		
		
		
	</g>
	<g>
		
		
		
		
		
		
		
		
	</g>
	<g>
		
		
		
		
		
		
	</g>
	<g>
		
		
		
		
		
		
		
		
		
		
	</g>
	<g>
		
		
		
		
		
		
		
		
		
		
	</g>
	<g>
		
		
		
		
		
		
		
		
		
		
		
	</g>
	<g>
		
		
		
		
		
		
		
		
		
	</g>
	<g>
		
		
		
		
		
		
		
		
	</g>
	<g>
		
		
		
		
		
		
		
		
		
	</g>
	<g>
		
		
		
		
		
		
		
		
	</g>
	<g>
		
		
		
		
		
		
		
		
	</g>
	<g>
		
		
		
		
		
		
		
		
		
	</g>
	<g>
		
		
		
		
		
	</g>
</g>
<g>
	
	
</g>
<g>
	
	
</g>
<g>
	
	
</g>
<g>
	
	
</g>
<g>
	
	
</g>
<g>
	
	
</g>
<g>
	
	
</g>
<g>
	
	
	
	
	
	
	
	
	
	
	
	
	
	
	
	
	
	
	
	
	
</g>
<g>
	
	
	
	
	
	
	
	
	
	
	
	
	
	
	
	
	
	
	
	
	
	
	
	
	
	
	
	
	
	
	
	
	
	
	
	
	
	
</g>
<rect x="461.6" y="410.04" class="st12" width="2.93" height="2.79"/>

<rect x="461.6" y="423.09" class="st12" width="2.93" height="2.79"/>

<rect x="461.6" y="435.9" class="st12" width="2.93" height="2.79"/>

<rect x="461.6" y="448.78" class="st12" width="2.93" height="2.79"/>

<rect x="461.6" y="461.51" class="st12" width="2.93" height="2.79"/>

<rect x="461.6" y="474.39" class="st12" width="2.93" height="2.79"/>

<rect x="461.6" y="487.12" class="st12" width="2.93" height="2.79"/>


<g>
	
	
	
	
	
</g>
<g>
	
	
	
	
</g>
</svg>
